<svg id="图层_1" data-name="图层 1" xmlns="http://www.w3.org/2000/svg" viewBox="0 0 368.14 86.89"><defs><style>.cls-1{fill:#0b50a2;}.cls-2{fill:#002d64;}.cls-3{fill:#fff;}</style></defs><title>Acdemic_logo</title><path class="cls-1" d="M43.14,0H-.19V86.89H8L21.47,53.33S-14.64,33.11,32.25,26.67Z" transform="translate(0.19)"/><path class="cls-1" d="M24.7,45.56l6.22-15.12S13.81,36.22,24.7,45.56Z" transform="translate(0.19)"/><path class="cls-1" d="M28.7,49.11l8.22-20.22,9.55,28.22S32.7,52.67,28.7,49.11Z" transform="translate(0.19)"/><path class="cls-1" d="M13.59,86.89H56.47L47.59,61.56S30,58.22,26,55.11Z" transform="translate(0.19)"/><path class="cls-2" d="M78,86.89H86.7V63.78s-12.45,1.33-17.78,0Z" transform="translate(0.19)"/><path class="cls-2" d="M43.14,0H86.7V62.22s-12,.67-19.11-1.11Z" transform="translate(0.19)"/><circle class="cls-3" cx="69.78" cy="30.15" r="2.81"/><path class="cls-3" d="M54.06,27.31s11,1.5,12.91,2l-.2.5s-9.39-1.43-12.24-1.13Z" transform="translate(0.19)"/><path d="M106.61,36.52l1.3-2.25L116,19.05l.86-1.7q.38-.75,1.05-2.16l4,0q2.2,0,4.08,0l2.28,6.52,4.64,12.53.9,2.28-3.28,0-3.86,0q-.69-2.58-2-6.06h-7.86c-.91,1.83-1.84,3.85-2.81,6.06l-3.57,0Zm12.1-10.61h4.85q-1.82-5.51-2-6.07c-.69,1.53-1.27,2.78-1.75,3.76Z" transform="translate(0.19)"/><path d="M147.94,31.53c-.05.42-.18,1.19-.38,2.3l-.4,2.5a20.2,20.2,0,0,1-4.8.59,11.53,11.53,0,0,1-3-.34,6.81,6.81,0,0,1-2.72-1.44,6.18,6.18,0,0,1-1.8-2.51,10.3,10.3,0,0,1-.67-3.81,10.75,10.75,0,0,1,.66-3.74,7.27,7.27,0,0,1,1.93-3,6.53,6.53,0,0,1,2.85-1.56,13.73,13.73,0,0,1,3.45-.4,21,21,0,0,1,2.23.12,21.48,21.48,0,0,1,2.79.5l0,.36c0,.38.05.76.07,1.15s.05,1,.1,1.85l.09,1.39a12.22,12.22,0,0,0-3.95-.78,4.62,4.62,0,0,0-2.16.48,3.1,3.1,0,0,0-1.38,1.37,4.63,4.63,0,0,0-.45,2.09,4.69,4.69,0,0,0,.4,2,2.56,2.56,0,0,0,1.28,1.21,4.35,4.35,0,0,0,1.92.41,9.21,9.21,0,0,0,1.26-.11q.72-.11,1.26-.24A12.52,12.52,0,0,0,147.94,31.53Z" transform="translate(0.19)"/><path d="M151.64,25.11c.2-1,.33-1.74.38-2.13s.13-1,.25-1.84a37.43,37.43,0,0,1,7.73-1,13.21,13.21,0,0,1,3.38.41,4.92,4.92,0,0,1,2.39,1.34,3.73,3.73,0,0,1,.86,2.64c0,.58-.08,1.9-.23,3.94s-.28,4.72-.36,8l-3,0-3.13,0c.14-1.15.3-3.51.47-7.1-.39.19-.7.33-.92.41s-.62.21-1.18.38-1,.3-1.32.42a2.92,2.92,0,0,0-.82.44,1.56,1.56,0,0,0-.5.54,1.33,1.33,0,0,0-.15.63,1.17,1.17,0,0,0,.42.9,2,2,0,0,0,1.35.38,4.51,4.51,0,0,0,.7-.06,5.45,5.45,0,0,0,1-.27c-.3.8-.66,2-1.08,3.52a16.4,16.4,0,0,1-2.54.21,8.39,8.39,0,0,1-3.23-.53,4,4,0,0,1-2-1.75,4.78,4.78,0,0,1-.69-2.4,4.21,4.21,0,0,1,.26-1.44,4.89,4.89,0,0,1,.8-1.38,5.57,5.57,0,0,1,1.28-1.14,8.74,8.74,0,0,1,2-.9,26.44,26.44,0,0,1,3.22-.8c.55-.1,1-.21,1.5-.33a6.13,6.13,0,0,0,1-.32,1.54,1.54,0,0,0,.47-.31,1.09,1.09,0,0,0,.26-.37,1.16,1.16,0,0,0,.08-.42,1,1,0,0,0-.5-.91,2.67,2.67,0,0,0-1.47-.32A19.3,19.3,0,0,0,151.64,25.11Z" transform="translate(0.19)"/><path d="M186.51,36.52l-2.79,0-3,0,.09-2c-.41.4-.76.72-1.06,1a6.1,6.1,0,0,1-1.17.71,7.26,7.26,0,0,1-1.53.53,7.81,7.81,0,0,1-1.69.18,7.2,7.2,0,0,1-2.8-.54,6.2,6.2,0,0,1-2.23-1.56,6.37,6.37,0,0,1-1.37-2.39,8.88,8.88,0,0,1-.46-2.86,10.8,10.8,0,0,1,.83-4.13,8.25,8.25,0,0,1,2.17-3.17,7.69,7.69,0,0,1,3-1.63,13.29,13.29,0,0,1,3.64-.48,24,24,0,0,1,3,.23c.08-1.24.14-3,.17-5.2l3.14,0,3.18,0q-.45,4.64-.79,11.33T186.51,36.52Zm-5.57-12.06a6.86,6.86,0,0,0-1.57-.19,5.29,5.29,0,0,0-2.58.58,3.87,3.87,0,0,0-1.64,1.83,5.87,5.87,0,0,0-.57,2.45,4.05,4.05,0,0,0,.32,1.63,2.58,2.58,0,0,0,1,1.15,2.71,2.71,0,0,0,1.48.42,2.74,2.74,0,0,0,1.57-.48,3.49,3.49,0,0,0,1.16-1.43,7.18,7.18,0,0,0,.61-2.22C180.82,27.34,180.9,26.09,180.94,24.46Z" transform="translate(0.19)"/><path d="M204.85,31.8c-.14.62-.4,2.14-.78,4.53-1.21.24-2.23.4-3,.48s-1.66.11-2.5.11a21.29,21.29,0,0,1-3.42-.25,7.89,7.89,0,0,1-2.7-.92,6.52,6.52,0,0,1-1.9-1.63,6.92,6.92,0,0,1-1.16-2.32,9.8,9.8,0,0,1-.4-2.76,10.13,10.13,0,0,1,.8-3.91,7.81,7.81,0,0,1,2-3,7.43,7.43,0,0,1,2.9-1.53,12.71,12.71,0,0,1,3.36-.45,14,14,0,0,1,3.4.41A6.29,6.29,0,0,1,204.19,22a5.81,5.81,0,0,1,1.6,2.33,7.94,7.94,0,0,1,.48,2.79,11.45,11.45,0,0,1-.2,2h-11c0,.17,0,.32,0,.45a2.77,2.77,0,0,0,1.2,2.48,5.2,5.2,0,0,0,2.94.79,13.27,13.27,0,0,0,2.35-.24A30.32,30.32,0,0,0,204.85,31.8Zm-9.61-5.05h5.16c0-.17,0-.33,0-.45a3.1,3.1,0,0,0-.29-1.39,1.74,1.74,0,0,0-.83-.84,2.66,2.66,0,0,0-1.21-.27,2.74,2.74,0,0,0-.9.15,2.27,2.27,0,0,0-.79.44,2.64,2.64,0,0,0-.59.66,3.17,3.17,0,0,0-.34.73A6.55,6.55,0,0,0,195.24,26.75Z" transform="translate(0.19)"/><path d="M207.72,36.52l.44-7.53.25-5.89,0-2.53,3,0c1,0,2,0,2.89,0l-.1,2.07a10.82,10.82,0,0,1,.82-1,4.77,4.77,0,0,1,.82-.64,4.84,4.84,0,0,1,1-.48,6.65,6.65,0,0,1,1.15-.29,8.39,8.39,0,0,1,1.35-.11,7.34,7.34,0,0,1,1.46.13,5.75,5.75,0,0,1,1.16.34,3.75,3.75,0,0,1,.84.47,3.3,3.3,0,0,1,.64.6,7.49,7.49,0,0,1,.63,1,5.69,5.69,0,0,1,1.45-1.51,5.43,5.43,0,0,1,1.75-.76,8.57,8.57,0,0,1,4.57.15,4.07,4.07,0,0,1,2,1.35,3.82,3.82,0,0,1,.78,2.49c0,.48,0,1.21-.11,2.18s-.16,2.63-.28,5-.19,4-.2,5l-2.78,0-3.43,0c.1-1.32.21-3,.32-5s.17-3.38.17-4.15a3.64,3.64,0,0,0-.24-1.51,1.36,1.36,0,0,0-.6-.68,1.82,1.82,0,0,0-.81-.18,1.86,1.86,0,0,0-.81.17,1.9,1.9,0,0,0-.66.58,4.55,4.55,0,0,0-.61,1.31,9.28,9.28,0,0,0-.3,1.88c-.07.85-.13,2-.17,3.37L224,36.52l-3,0-3.23,0c.1-.93.21-2.49.33-4.67s.19-3.65.19-4.39a4.15,4.15,0,0,0-.18-1.41,1.89,1.89,0,0,0-.53-.75,1.33,1.33,0,0,0-.9-.28,1.66,1.66,0,0,0-1.06.36,2.81,2.81,0,0,0-.77,1,5.78,5.78,0,0,0-.46,1.85q-.12,1.18-.24,3.6c-.07,1.62-.12,3.17-.14,4.66l-3.06,0Z" transform="translate(0.19)"/><path d="M236.77,36.52c.15-1.27.26-2.32.33-3.14s.14-1.88.21-3.16.12-2.7.18-4.25.09-3.35.12-5.4l3.25,0,3.19,0c-.18,2-.31,3.69-.38,5.18s-.13,3.07-.15,4.74q-.08,4.44-.07,6l-3.2,0Zm1-18q.09-1.86.09-2.94c0-.21,0-.49,0-.85,1.26,0,2.32,0,3.18,0,1.17,0,2.2,0,3.09,0,0,.33,0,.6-.06.82l-.1,1.93c0,.3,0,.64,0,1-1,0-2,0-3,0S238.9,18.54,237.76,18.57Z" transform="translate(0.19)"/><path d="M259.52,31.53c0,.42-.18,1.19-.37,2.3l-.41,2.5a20.13,20.13,0,0,1-4.8.59,11.53,11.53,0,0,1-3-.34,6.81,6.81,0,0,1-2.72-1.44,6.27,6.27,0,0,1-1.8-2.51,10.5,10.5,0,0,1-.67-3.81,10.75,10.75,0,0,1,.66-3.74,7.28,7.28,0,0,1,1.94-3,6.5,6.5,0,0,1,2.84-1.56,13.73,13.73,0,0,1,3.45-.4,21.15,21.15,0,0,1,2.24.12,21.37,21.37,0,0,1,2.78.5l0,.36c0,.38.05.76.07,1.15s.05,1,.1,1.85l.09,1.39a12.17,12.17,0,0,0-4-.78,4.65,4.65,0,0,0-2.16.48,3.1,3.1,0,0,0-1.38,1.37,4.76,4.76,0,0,0-.44,2.09,4.55,4.55,0,0,0,.4,2,2.5,2.5,0,0,0,1.27,1.21,4.35,4.35,0,0,0,1.92.41,9.21,9.21,0,0,0,1.26-.11q.72-.11,1.26-.24A12.52,12.52,0,0,0,259.52,31.53Z" transform="translate(0.19)"/><path d="M125.8,65.8c-.12.61-.27,1.46-.45,2.56s-.3,1.94-.36,2.55a41.32,41.32,0,0,1-6,.5,16.86,16.86,0,0,1-4.71-.64,11.43,11.43,0,0,1-4-2.08,8.2,8.2,0,0,1-2.6-3.39,11.74,11.74,0,0,1-.78-4.38,11.89,11.89,0,0,1,1-5.08,9.94,9.94,0,0,1,3-3.77,12.72,12.72,0,0,1,4.34-2.16,18.39,18.39,0,0,1,4.87-.64,33.75,33.75,0,0,1,5.72.59l0,1.31c0,.57.06,1.2.1,1.89l.11,1.78c-1.22-.29-2.21-.49-3-.59a16.32,16.32,0,0,0-2.11-.16,8.25,8.25,0,0,0-3.79.85,6.36,6.36,0,0,0-2.66,2.45,6.82,6.82,0,0,0-1,3.56,5.33,5.33,0,0,0,3,5,7.59,7.59,0,0,0,3.41.69,17.83,17.83,0,0,0,2.42-.18A29.61,29.61,0,0,0,125.8,65.8Z" transform="translate(0.19)"/><path d="M137.26,54.64a11.87,11.87,0,0,1,3.72.59,8.61,8.61,0,0,1,3,1.71,7.09,7.09,0,0,1,1.82,2.61,8.77,8.77,0,0,1,.58,3.22,9.54,9.54,0,0,1-.52,3.17,7.78,7.78,0,0,1-1.78,2.83,7.69,7.69,0,0,1-3.18,2,12.46,12.46,0,0,1-4.08.66,12.74,12.74,0,0,1-3.81-.58A8.23,8.23,0,0,1,130,69.14a7,7,0,0,1-1.84-2.66,8.7,8.7,0,0,1-.62-3.25,9,9,0,0,1,.6-3.25A7.66,7.66,0,0,1,130,57.2a8.89,8.89,0,0,1,3.23-1.9A12.2,12.2,0,0,1,137.26,54.64Zm-.11,4.59a3.24,3.24,0,0,0-1.79.52,3.18,3.18,0,0,0-1.18,1.51,5.84,5.84,0,0,0-.39,2.16,3.66,3.66,0,0,0,.86,2.63,2.83,2.83,0,0,0,2.15.92,3.1,3.1,0,0,0,1.77-.53,3.17,3.17,0,0,0,1.18-1.54,6.14,6.14,0,0,0,.4-2.2,4.66,4.66,0,0,0-.32-1.75,2.71,2.71,0,0,0-1-1.25A3,3,0,0,0,137.15,59.23Z" transform="translate(0.19)"/><path d="M148.13,71l.44-7.53.25-5.89,0-2.53,3,0c1,0,2,0,2.89,0l-.11,2.07c.33-.41.6-.73.82-1a5.7,5.7,0,0,1,.82-.64,5.38,5.38,0,0,1,1-.48,7,7,0,0,1,1.16-.29,8.26,8.26,0,0,1,1.34-.11,8.37,8.37,0,0,1,1.47.13,5.75,5.75,0,0,1,1.16.34,3.75,3.75,0,0,1,.84.47,3.6,3.6,0,0,1,.63.6,6.17,6.17,0,0,1,.64,1A5.59,5.59,0,0,1,166,55.64a5.48,5.48,0,0,1,1.74-.76,8.38,8.38,0,0,1,2-.24,8.22,8.22,0,0,1,2.56.39,4.15,4.15,0,0,1,2,1.35,3.88,3.88,0,0,1,.77,2.49c0,.48,0,1.21-.1,2.18s-.16,2.63-.28,5-.19,4-.2,5l-2.78,0-3.43,0c.1-1.32.21-3,.32-5s.16-3.37.16-4.15a3.67,3.67,0,0,0-.23-1.51,1.41,1.41,0,0,0-.6-.68,1.75,1.75,0,0,0-2.28.58,4.13,4.13,0,0,0-.61,1.3,9.28,9.28,0,0,0-.3,1.88c-.07.85-.13,2-.17,3.37L164.42,71l-3,0-3.23,0c.09-.93.2-2.48.33-4.67s.19-3.65.19-4.39a3.87,3.87,0,0,0-.19-1.41,1.87,1.87,0,0,0-.52-.75,1.33,1.33,0,0,0-.9-.28,1.64,1.64,0,0,0-1.06.36,2.81,2.81,0,0,0-.77,1,5.85,5.85,0,0,0-.46,1.85q-.13,1.18-.24,3.6c-.07,1.62-.12,3.17-.14,4.66l-3.07,0Z" transform="translate(0.19)"/><path d="M177.32,71l.44-7.53.24-5.89,0-2.53,3,0c1,0,2,0,2.89,0l-.11,2.07c.32-.41.6-.73.82-1a5.7,5.7,0,0,1,.82-.64,5.09,5.09,0,0,1,1-.48,7,7,0,0,1,1.16-.29,8.26,8.26,0,0,1,1.34-.11,8.37,8.37,0,0,1,1.47.13,6,6,0,0,1,1.16.34,3.75,3.75,0,0,1,.84.47,3.6,3.6,0,0,1,.63.6,7,7,0,0,1,.64,1,5.07,5.07,0,0,1,3.19-2.28,8.38,8.38,0,0,1,2-.24,8.26,8.26,0,0,1,2.56.39,4.15,4.15,0,0,1,2,1.35,3.88,3.88,0,0,1,.77,2.49c0,.48,0,1.21-.1,2.18s-.17,2.63-.29,5-.18,4-.19,5l-2.78,0-3.44,0q.17-2,.33-5c.11-2,.16-3.37.16-4.15a3.85,3.85,0,0,0-.23-1.51,1.37,1.37,0,0,0-.61-.68,1.77,1.77,0,0,0-.8-.18,1.9,1.9,0,0,0-.82.17,1.73,1.73,0,0,0-.65.59,4.37,4.37,0,0,0-.62,1.3,10.23,10.23,0,0,0-.29,1.88c-.08.85-.13,2-.17,3.37L193.61,71l-3,0-3.23,0c.09-.93.2-2.48.33-4.67s.19-3.65.19-4.39a3.87,3.87,0,0,0-.19-1.41,1.87,1.87,0,0,0-.52-.75,1.36,1.36,0,0,0-.9-.28,1.64,1.64,0,0,0-1.06.36,2.83,2.83,0,0,0-.78,1,6.16,6.16,0,0,0-.45,1.85q-.13,1.18-.24,3.6c-.08,1.62-.12,3.17-.14,4.66l-3.07,0Z" transform="translate(0.19)"/><path d="M224,71l-3,0-3,0V68.86a9,9,0,0,1-1,1,4.75,4.75,0,0,1-.85.62,5.73,5.73,0,0,1-1,.46,8.16,8.16,0,0,1-1.31.31,10.84,10.84,0,0,1-1.51.11,9.24,9.24,0,0,1-2.33-.29,5,5,0,0,1-1.94-1,3.5,3.5,0,0,1-1.14-1.56,6,6,0,0,1-.31-2c0-.19,0-.48.05-.88l.25-3.55c.07-1.3.14-2.74.2-4.32,0-1,.07-1.89.07-2.75l3.29,0,3,0L213,61c-.08.91-.11,1.52-.12,1.85s0,.55,0,.67a2.83,2.83,0,0,0,.67,2.21,2.31,2.31,0,0,0,1.59.58,2.43,2.43,0,0,0,.75-.11,2.85,2.85,0,0,0,.72-.31,2.41,2.41,0,0,0,.55-.47,3.2,3.2,0,0,0,.47-.72,4.84,4.84,0,0,0,.38-1.11,17.15,17.15,0,0,0,.26-2.09c0-.61.1-1.68.17-3.19l.12-3.26,3.31,0,2.92,0c-.24,2.64-.43,5.16-.56,7.54S224,67.78,224,71Z" transform="translate(0.19)"/><path d="M226.68,71c.3-2.36.53-5,.69-7.84s.25-5.56.29-8.11l3.23,0c1.06,0,2.07,0,3,0l-.16,2.12c.35-.38.64-.69.89-.91a5.05,5.05,0,0,1,.93-.66,6.22,6.22,0,0,1,1.18-.52,8.88,8.88,0,0,1,1.37-.32,9.77,9.77,0,0,1,1.56-.12,9.93,9.93,0,0,1,2.19.24,5.77,5.77,0,0,1,1.79.69,4.25,4.25,0,0,1,1.2,1.11,3.61,3.61,0,0,1,.64,1.43,7.5,7.5,0,0,1,.16,1.58c0,.39,0,1.25-.13,2.56l-.27,5.66c-.05,1.11-.08,2.14-.08,3.09l-2.95,0c-1.23,0-2.36,0-3.38,0q.13-1.43.3-4.23c.1-1.87.15-3.18.15-3.94a3.45,3.45,0,0,0-.68-2.46,2.26,2.26,0,0,0-1.71-.7,2.81,2.81,0,0,0-1.71.6A3.78,3.78,0,0,0,234,62a14.25,14.25,0,0,0-.61,3.73c-.12,1.73-.2,3.49-.25,5.28l-3,0Z" transform="translate(0.19)"/><path d="M247.85,71c.15-1.27.26-2.32.33-3.14s.14-1.88.21-3.16.13-2.69.18-4.25.09-3.35.12-5.4l3.25,0,3.19,0c-.18,2-.3,3.69-.38,5.18s-.13,3.07-.15,4.74q-.07,4.44-.07,6l-3.2,0Zm1-18q.09-1.86.09-2.94c0-.21,0-.49,0-.84l3.18,0q1.75,0,3.09,0,0,.48-.06.81L255,52c0,.29,0,.63,0,1l-3,0Z" transform="translate(0.19)"/><path d="M270.6,66c-.05.41-.18,1.18-.37,2.29l-.41,2.5a20.09,20.09,0,0,1-4.8.6,11.5,11.5,0,0,1-3-.35,6.81,6.81,0,0,1-2.72-1.44,6.27,6.27,0,0,1-1.8-2.51,10.5,10.5,0,0,1-.67-3.81,10.79,10.79,0,0,1,.66-3.74,7.28,7.28,0,0,1,1.94-3A6.6,6.6,0,0,1,262.29,55a13.73,13.73,0,0,1,3.45-.4,21.15,21.15,0,0,1,2.24.12,23.53,23.53,0,0,1,2.78.51l0,.35c0,.38,0,.76.07,1.15s.05,1,.1,1.85l.1,1.4a12,12,0,0,0-4-.79,4.65,4.65,0,0,0-2.16.48,3.07,3.07,0,0,0-1.38,1.38,4.72,4.72,0,0,0-.44,2.08,4.52,4.52,0,0,0,.4,2,2.56,2.56,0,0,0,1.27,1.22,4.49,4.49,0,0,0,1.92.4A7.67,7.67,0,0,0,268,66.7c.48-.07.91-.15,1.27-.24S270.05,66.22,270.6,66Z" transform="translate(0.19)"/><path d="M274.31,59.59c.19-1,.32-1.74.37-2.13s.14-1,.25-1.84a37.43,37.43,0,0,1,7.74-1,13.13,13.13,0,0,1,3.37.41,5,5,0,0,1,2.39,1.34,3.72,3.72,0,0,1,.86,2.64c0,.58-.08,1.9-.23,3.94s-.28,4.72-.36,8l-3.05,0-3.12,0q.21-1.73.47-7.09c-.4.18-.71.32-.93.4s-.62.21-1.18.38-1,.3-1.31.42a2.84,2.84,0,0,0-.83.44,1.77,1.77,0,0,0-.5.54,1.33,1.33,0,0,0-.15.63,1.14,1.14,0,0,0,.43.9,2,2,0,0,0,1.34.38,4.41,4.41,0,0,0,.7-.06,5.27,5.27,0,0,0,1-.27c-.3.8-.66,2-1.07,3.52a16.69,16.69,0,0,1-2.55.22,8.41,8.41,0,0,1-3.23-.54,4,4,0,0,1-2-1.75,4.69,4.69,0,0,1-.7-2.4,4.21,4.21,0,0,1,.26-1.44,4.71,4.71,0,0,1,.8-1.37,5.83,5.83,0,0,1,1.28-1.15,8.74,8.74,0,0,1,2-.9,26.66,26.66,0,0,1,3.23-.8c.54-.1,1-.21,1.49-.33a6.76,6.76,0,0,0,1-.32,1.48,1.48,0,0,0,.47-.31,1.05,1.05,0,0,0,.25-.37,1,1,0,0,0,.08-.42,1,1,0,0,0-.5-.91,2.76,2.76,0,0,0-1.47-.32A19.21,19.21,0,0,0,274.31,59.59Z" transform="translate(0.19)"/><path d="M303.2,66.41c-.19.87-.35,1.73-.49,2.56l-.34,1.9a23.14,23.14,0,0,1-2.41.44,16.42,16.42,0,0,1-1.68.1,11,11,0,0,1-2.36-.23,3.8,3.8,0,0,1-1.72-.83,3.08,3.08,0,0,1-.94-1.38,5.29,5.29,0,0,1-.25-1.66c0-.1,0-.29,0-.55s0-.86.1-1.78l.35-5.4H291c0-.72.1-1.67.14-2.85l.05-1.45h2.59c.06-.48.14-1.52.23-3.14l2.68-.55q.74-.14,3.12-.72-.11,2.06-.15,4.41h3.56c-.08,2.17-.12,3.6-.12,4.3h-3.6l-.19,3.9c0,.59,0,1,0,1.13a4,4,0,0,0,.17,1.25,1.19,1.19,0,0,0,.57.72,2,2,0,0,0,.92.22,5.32,5.32,0,0,0,.78-.06A13.19,13.19,0,0,0,303.2,66.41Z" transform="translate(0.19)"/><path d="M304.46,71c.15-1.27.26-2.32.33-3.14s.14-1.88.21-3.16.13-2.69.18-4.25.09-3.35.12-5.4l3.26,0,3.19,0c-.18,2-.31,3.69-.39,5.18s-.13,3.07-.15,4.74q-.06,4.44-.06,6l-3.21,0Zm1-18q.09-1.86.09-2.94c0-.21,0-.49,0-.84l3.17,0c1.17,0,2.21,0,3.09,0q0,.48-.06.81L311.64,52a10.28,10.28,0,0,0,0,1l-3,0Z" transform="translate(0.19)"/><path d="M323.2,54.64a12,12,0,0,1,3.73.59,8.48,8.48,0,0,1,3,1.71,7,7,0,0,1,1.82,2.61,8.77,8.77,0,0,1,.59,3.22,9.54,9.54,0,0,1-.53,3.17,7.85,7.85,0,0,1-4.95,4.81,12.57,12.57,0,0,1-4.09.66,12.74,12.74,0,0,1-3.81-.58,8.11,8.11,0,0,1-3.05-1.69,7,7,0,0,1-1.85-2.66,8.89,8.89,0,0,1,0-6.5A7.64,7.64,0,0,1,316,57.2a9,9,0,0,1,3.23-1.9A12.2,12.2,0,0,1,323.2,54.64Zm-.11,4.59a3.18,3.18,0,0,0-1.78.52,3.12,3.12,0,0,0-1.18,1.51,5.65,5.65,0,0,0-.4,2.16,3.7,3.7,0,0,0,.86,2.63,2.83,2.83,0,0,0,2.16.92,3.07,3.07,0,0,0,2.94-2.07,5.93,5.93,0,0,0,.4-2.2,4.66,4.66,0,0,0-.31-1.75,2.67,2.67,0,0,0-1-1.25A3,3,0,0,0,323.09,59.23Z" transform="translate(0.19)"/><path d="M333.87,71c.3-2.36.53-5,.69-7.84s.26-5.56.29-8.11l3.24,0q1.57,0,3,0L341,57.17a11.25,11.25,0,0,1,.89-.91,5.05,5.05,0,0,1,.93-.66,6,6,0,0,1,1.18-.52,8.48,8.48,0,0,1,1.36-.32,10.15,10.15,0,0,1,3.75.12,5.67,5.67,0,0,1,1.79.69,4.43,4.43,0,0,1,1.21,1.11,3.76,3.76,0,0,1,.64,1.43,8.22,8.22,0,0,1,.15,1.58c0,.39,0,1.25-.12,2.56l-.27,5.66c-.06,1.11-.08,2.14-.08,3.09l-2.95,0q-1.86,0-3.39,0,.13-1.43.3-4.23c.1-1.87.16-3.18.16-3.94a3.5,3.5,0,0,0-.68-2.46,2.3,2.3,0,0,0-1.72-.7,2.83,2.83,0,0,0-1.71.6A3.69,3.69,0,0,0,341.17,62a13.75,13.75,0,0,0-.62,3.73q-.18,2.59-.24,5.28l-3.05,0Z" transform="translate(0.19)"/><path d="M355,70.7q-.06-.69-.12-1.44c0-.51-.11-1.2-.21-2.09l-.12-1.12a25.83,25.83,0,0,0,2.6.88,8.05,8.05,0,0,0,2,.29,4.6,4.6,0,0,0,1.24-.14,1.43,1.43,0,0,0,.7-.41.9.9,0,0,0,.22-.55.88.88,0,0,0-.17-.49,3.24,3.24,0,0,0-.74-.66c-.85-.63-1.6-1.19-2.25-1.7a10.22,10.22,0,0,1-1.47-1.36,4.64,4.64,0,0,1-.74-1.29,4,4,0,0,1-.26-1.42,4.36,4.36,0,0,1,.74-2.42,4.22,4.22,0,0,1,2.19-1.63,10.64,10.64,0,0,1,3.52-.51,35.64,35.64,0,0,1,5.55.56l.25,4.38a9.84,9.84,0,0,0-3.64-.75,4.62,4.62,0,0,0-1.79.25.82.82,0,0,0-.55.78,1,1,0,0,0,.06.33,1.35,1.35,0,0,0,.22.33,3.89,3.89,0,0,0,.41.35l1.18.83c.63.44,1.11.8,1.47,1.08a8.36,8.36,0,0,1,1.34,1.27,4.69,4.69,0,0,1,.7,1.25,4.12,4.12,0,0,1,.24,1.4,4,4,0,0,1-.54,2,4.35,4.35,0,0,1-1.62,1.56,7.71,7.71,0,0,1-2.35.86,14.08,14.08,0,0,1-2.61.25,21.9,21.9,0,0,1-2.28-.16C357.28,71.15,356.22,71,355,70.7Z" transform="translate(0.19)"/></svg>